<svg xmlns="http://www.w3.org/2000/svg" width="19.176" height="8.75" viewBox="0 0 19.176 8.75">
  <path id="Icon_ionic-ios-arrow-round-forward" data-name="Icon ionic-ios-arrow-round-forward" d="M16.675,11.419a.6.6,0,0,0,0,.839l2.771,2.775H4.407l-1.567,0a.59.59,0,0,0-.588.592c0,.328.429.588.753.588H19.436l-2.771,2.775a.6.6,0,0,0,0,.839.59.59,0,0,0,.834,0l3.755-3.782h0a.665.665,0,0,0,.123-.187.565.565,0,0,0,.046-.228.594.594,0,0,0-.169-.415L17.5,11.433A.581.581,0,0,0,16.675,11.419Z" transform="translate(-2.252 -11.252)" fill="#fff"/>
</svg>
