<svg xmlns="http://www.w3.org/2000/svg" xmlns:xlink="http://www.w3.org/1999/xlink" width="9.73" height="16.623" viewBox="0 0 9.73 16.623">
  <defs>
    <filter id="back_Arrow" x="0" y="0" width="9.73" height="16.623" filterUnits="userSpaceOnUse">
      <feOffset dy="3" input="SourceAlpha"/>
      <feGaussianBlur stdDeviation="3" result="blur"/>
      <feFlood flood-opacity="0.161" result="color"/>
      <feComposite operator="out" in="SourceGraphic" in2="blur"/>
      <feComposite operator="in" in="color"/>
      <feComposite operator="in" in2="SourceGraphic"/>
    </filter>
  </defs>
  <g data-type="innerShadowGroup">
    <path id="back_Arrow-2" data-name="back Arrow" d="M7.733,16.284.237,8.876a.79.79,0,0,1,0-1.128L7.733.338a1.181,1.181,0,0,1,1.655,0,1.148,1.148,0,0,1,0,1.635L2.975,8.312l6.413,6.337a1.149,1.149,0,0,1,0,1.636,1.181,1.181,0,0,1-1.655,0" fill="black"/>
    <g transform="matrix(1, 0, 0, 1, 0, 0)" filter="url(#back_Arrow)">
      <path id="back_Arrow-3" data-name="back Arrow" d="M7.733,16.284.237,8.876a.79.79,0,0,1,0-1.128L7.733.338a1.181,1.181,0,0,1,1.655,0,1.148,1.148,0,0,1,0,1.635L2.975,8.312l6.413,6.337a1.149,1.149,0,0,1,0,1.636,1.181,1.181,0,0,1-1.655,0" fill="#fff"/>
    </g>
  </g>
</svg>
