<svg xmlns="http://www.w3.org/2000/svg" width="17.806" height="8.125" viewBox="0 0 17.806 8.125">
  <path id="Icon_ionic-ios-arrow-round-forward" data-name="Icon ionic-ios-arrow-round-forward" d="M15.644,11.407a.553.553,0,0,0,0,.779l2.573,2.577H4.253l-1.455,0a.548.548,0,0,0-.546.55c0,.3.4.546.7.546H18.209L15.636,18.44a.557.557,0,0,0,0,.779.548.548,0,0,0,.774,0L19.9,15.7h0a.618.618,0,0,0,.114-.173.525.525,0,0,0,.042-.212.552.552,0,0,0-.157-.385L16.414,11.42A.539.539,0,0,0,15.644,11.407Z" transform="translate(-2.252 -11.252)" fill="#4b4b4b"/>
</svg>
