<svg xmlns="http://www.w3.org/2000/svg" width="17" height="18" viewBox="0 0 17 18">
  <path id="calendar" d="M14.639,18H2.361A2.367,2.367,0,0,1,0,15.632V3.315A2.367,2.367,0,0,1,2.361.947H3.777V.474a.473.473,0,1,1,.945,0V.947h7.555V.474a.473.473,0,1,1,.945,0V.947h1.416A2.367,2.367,0,0,1,17,3.315V15.632A2.367,2.367,0,0,1,14.639,18ZM.944,6.629v9a1.42,1.42,0,0,0,1.417,1.421H14.639a1.42,1.42,0,0,0,1.417-1.421v-9ZM2.361,1.894A1.42,1.42,0,0,0,.944,3.315V5.682H16.056V3.315a1.42,1.42,0,0,0-1.417-1.421H13.223v.474a.473.473,0,1,1-.945,0V1.894H4.723v.474a.473.473,0,1,1-.945,0V1.894Z" fill="#c5cee0"/>
</svg>
