<svg xmlns="http://www.w3.org/2000/svg" width="36.107" height="36.107" viewBox="0 0 36.107 36.107">
  <g id="Group_1537" data-name="Group 1537" transform="translate(-1693 -2269.46)">
    <g id="Group_59612" data-name="Group 59612">
      <rect id="Rectangle_32" data-name="Rectangle 32" width="36.107" height="36.107" rx="18.054" transform="translate(1693 2269.46)" fill="#43d4aa" opacity="0.15"/>
      <path id="Icon_metro-dialer-sip" data-name="Icon metro-dialer-sip" d="M19.688,16.177a8.9,8.9,0,0,1-2.785-.445.783.783,0,0,0-.792.191L14.4,17.644a11.788,11.788,0,0,1-5.141-5.137l1.716-1.72A.783.783,0,0,0,11.162,10a8.922,8.922,0,0,1-.445-2.789.777.777,0,0,0-.78-.78H7.207a.777.777,0,0,0-.78.78A13.26,13.26,0,0,0,19.688,20.468a.777.777,0,0,0,.78-.78v-2.73a.777.777,0,0,0-.78-.78Z" transform="translate(1697.573 2274.034)" fill="#43d4aa"/>
    </g>
  </g>
</svg>
