<svg xmlns="http://www.w3.org/2000/svg" xmlns:xlink="http://www.w3.org/1999/xlink" width="25.326" height="24.943" viewBox="0 0 25.326 24.943">
  <defs>
    <clipPath id="clip-path">
      <rect id="Rectangle_18110" data-name="Rectangle 18110" width="25.326" height="24.943" transform="translate(3940 4535)" fill="#e52323"/>
    </clipPath>
  </defs>
  <g id="chat" transform="translate(-3940 -4535)" clip-path="url(#clip-path)">
    <g id="speech-bubble" transform="translate(3940 4536.055)">
      <path id="Path_27699" data-name="Path 27699" d="M246.495,100a.495.495,0,1,0,.495.495A.495.495,0,0,0,246.495,100Zm0,0" transform="translate(-233.832 -95.053)" fill="#fff"/>
      <path id="Path_27700" data-name="Path 27700" d="M80.495,260.989a.495.495,0,1,0-.495-.495A.495.495,0,0,0,80.495,260.989Zm0,0" transform="translate(-76.043 -247.139)" fill="#fff"/>
      <path id="Path_27701" data-name="Path 27701" d="M16.62,0C12.167,0,8.512,3.07,8.229,6.937,3.988,7.15,0,10.208,0,14.345a6.912,6.912,0,0,0,1.929,4.731,3.008,3.008,0,0,1-.795,2.834.495.495,0,0,0,.35.844,5.456,5.456,0,0,0,3.78-1.528,11.272,11.272,0,0,0,3.442.539c4.453,0,8.107-3.07,8.391-6.936a11.123,11.123,0,0,0,2.965-.528,5.456,5.456,0,0,0,3.78,1.528.495.495,0,0,0,.35-.844A3.008,3.008,0,0,1,23.4,12.15a6.912,6.912,0,0,0,1.929-4.731c0-4.3-4.3-7.42-8.706-7.42ZM8.706,20.775a10,10,0,0,1-3.389-.584.5.5,0,0,0-.548.126,4.463,4.463,0,0,1-2.22,1.317,4,4,0,0,0,.3-2.944.494.494,0,0,0-.121-.209,5.944,5.944,0,0,1-1.74-4.137c0-3.486,3.534-6.43,7.717-6.43,3.95,0,7.42,2.747,7.42,6.43,0,3.546-3.328,6.43-7.42,6.43ZM22.6,11.556a.5.5,0,0,0-.121.209,4,4,0,0,0,.3,2.944,4.462,4.462,0,0,1-2.22-1.317.5.5,0,0,0-.548-.126,9.744,9.744,0,0,1-2.914.571A7.08,7.08,0,0,0,14.422,8.9h6.452a.495.495,0,0,0,0-.989H12.9a9.225,9.225,0,0,0-3.681-.975c.284-3.322,3.494-5.95,7.4-5.95,4.183,0,7.717,2.945,7.717,6.43a5.944,5.944,0,0,1-1.74,4.137Zm0,0" transform="translate(0 0)" fill="#fff"/>
      <path id="Path_27702" data-name="Path 27702" d="M126.727,260h-6.233a.495.495,0,0,0,0,.989h6.233a.495.495,0,1,0,0-.989Zm0,0" transform="translate(-114.064 -247.139)" fill="#fff"/>
      <path id="Path_27703" data-name="Path 27703" d="M88.706,320H80.495a.495.495,0,0,0,0,.989h8.211a.495.495,0,0,0,0-.989Zm0,0" transform="translate(-76.043 -304.171)" fill="#fff"/>
      <path id="Path_27704" data-name="Path 27704" d="M292.727,100h-6.233a.495.495,0,1,0,0,.989h6.233a.495.495,0,0,0,0-.989Zm0,0" transform="translate(-271.853 -95.053)" fill="#fff"/>
    </g>
  </g>
</svg>
