<svg xmlns="http://www.w3.org/2000/svg" width="15.237" height="15.236" viewBox="0 0 15.237 15.236">
  <g id="Component_96_1" data-name="Component 96 – 1" transform="translate(0.16 0.15)">
    <path id="Path_28034" data-name="Path 28034" d="M155.592,436.4a2.183,2.183,0,0,1-1.53-.672c-1.371-1.363-3.178-3.162-5-4.991a.606.606,0,0,0-.426-.2.616.616,0,0,0-.386.152,1.636,1.636,0,0,0-.645,1.276.212.212,0,0,1-.145.222.247.247,0,0,1-.094.022.213.213,0,0,1-.146-.067c-.051-.044-.1-.108-.065-.349a2.047,2.047,0,0,1,1.449-1.787.856.856,0,0,0,.328-.221L150.717,428q2.685-2.683,5.369-5.367a1.038,1.038,0,0,1,.259-.207h.141a.214.214,0,0,1,.148.131.25.25,0,0,1-.035.254,1.482,1.482,0,0,1-.127.148l-.044.044-1,1a.492.492,0,0,0,0,.81l1.3,1.3c1.156,1.156,2.352,2.352,3.529,3.527a1.92,1.92,0,0,1,.595,1.227v.518l-.023.092c-.023.093-.045.181-.071.265a1.921,1.921,0,0,1-.472.807q-.426.427-.85.855c-.789.8-1.6,1.618-2.426,2.4a2.036,2.036,0,0,1-1.421.6Zm-6.179-6.037.574.648a.508.508,0,0,0,.05.059l1.163,1.16c1.053,1.051,2.142,2.138,3.217,3.2a1.649,1.649,0,0,0,1.157.5,1.709,1.709,0,0,0,1.2-.526c1.1-1.092,2.11-2.1,3.095-3.087a1.612,1.612,0,0,0,0-2.39l-1.915-1.91c-.963-.96-1.959-1.953-2.937-2.931a.485.485,0,0,0-.746.007c-.491.495-.994,1-1.48,1.481l-.709.708-1.352,1.355-1.263,1.267h7.545c.023,0,.05,0,.074,0a.232.232,0,0,1,.182.114.212.212,0,0,1,.011.2c-.036.079-.082.145-.28.145h-6.554C150.423,430.369,149.413,430.365,149.413,430.365Z" transform="translate(-145.928 -422.428)" fill="#c5cee0" stroke="#c5cee0" stroke-width="0.3"/>
    <path id="Path_28035" data-name="Path 28035" d="M117.016,716.463h-.032a1.465,1.465,0,0,1-1.226-.685,1.35,1.35,0,0,1-.061-1.327,8.41,8.41,0,0,1,1.111-1.683.228.228,0,0,1,.172-.086.146.146,0,0,1,.117.053,6.278,6.278,0,0,1,1.23,1.951,1.313,1.313,0,0,1-.143,1.1,1.354,1.354,0,0,1-.946.649l-.042.006a1.46,1.46,0,0,1-.18.021Zm-.039-.46a.969.969,0,0,0,.814-.464.882.882,0,0,0,.052-.863c-.157-.314-.337-.61-.493-.863a2.083,2.083,0,0,0-.379-.407,2.06,2.06,0,0,0-.38.41,9.8,9.8,0,0,0-.495.866.884.884,0,0,0,.056.86.968.968,0,0,0,.809.46Z" transform="translate(-115.552 -701.527)" fill="#c5cee0" stroke="#c5cee0" stroke-width="0.3"/>
  </g>
</svg>
