<svg xmlns="http://www.w3.org/2000/svg" xmlns:xlink="http://www.w3.org/1999/xlink" width="41" height="41" viewBox="0 0 41 41">
  <defs>
    <clipPath id="clip-path">
      <circle id="Ellipse_3110" data-name="Ellipse 3110" cx="20.5" cy="20.5" r="20.5" transform="translate(4124 4504)" fill="#4b4b4b"/>
    </clipPath>
  </defs>
  <g id="Mask_Group_59" data-name="Mask Group 59" transform="translate(-4124 -4504)" clip-path="url(#clip-path)">
    <g id="Group_59126" data-name="Group 59126" transform="translate(4123.7 4503.813)">
      <circle id="Ellipse_3109" data-name="Ellipse 3109" cx="20.5" cy="20.5" r="20.5" transform="translate(0.3 0.187)" fill="#fb2238"/>
      <g id="Group" transform="translate(13.729 13.729)">
        <path id="Vector" d="M1.819,3.754a4.228,4.228,0,0,1,5.825-.183.282.282,0,0,0,.381-.012L9.4,2.186a.279.279,0,0,0-.007-.4,6.723,6.723,0,0,0-9.336.2,7.639,7.639,0,0,0,.023,1.76S1.067,4.512,1.819,3.754Z" transform="translate(1.909 0)" fill="#fff"/>
        <path id="Vector-2" data-name="Vector" d="M1.125,2.623A4.228,4.228,0,0,1,6.95,2.44a.282.282,0,0,0,.381-.012l.788-.788c-.069-.053-.136-.109-.2-.167A5.7,5.7,0,0,0,4.071,0,5.581,5.581,0,0,0,.152,1.65,3.522,3.522,0,0,0,0,2.62s.128-.012,1.125,0Z" transform="translate(2.602 1.131)" fill="#fff"/>
        <path id="Vector-3" data-name="Vector" d="M2.5,4.705A4.224,4.224,0,0,0,3.75,7.753l-.6,1.3-1.164.469A6.723,6.723,0,0,1,1.963,0L3.728,1.765A4.221,4.221,0,0,0,2.5,4.705Z" transform="translate(0 1.989)" fill="#fff"/>
        <path id="Vector-4" data-name="Vector" d="M1.366,3.914A4.224,4.224,0,0,0,2.619,6.961l-.965.965A5.611,5.611,0,0,1,1.624,0L2.6.973A4.221,4.221,0,0,0,1.366,3.914Z" transform="translate(1.131 2.781)" fill="#fff"/>
        <path id="Vector-5" data-name="Vector" d="M7.734,0A4.226,4.226,0,0,1,4.72,1.228,4.223,4.223,0,0,1,1.765,0L0,1.765A6.711,6.711,0,0,0,4.726,3.724,6.68,6.68,0,0,0,9.477,1.748L8.973.669Z" transform="translate(1.986 9.742)" fill="#fff"/>
        <path id="Vector-6" data-name="Vector" d="M6.934,0A4.226,4.226,0,0,1,3.92,1.228,4.222,4.222,0,0,1,.965,0L0,.965A5.584,5.584,0,0,0,3.948,2.593,5.584,5.584,0,0,0,7.9.965Z" transform="translate(2.785 9.742)" fill="#fff"/>
        <path id="Vector-7" data-name="Vector" d="M6.723.24A.24.24,0,0,0,6.483,0H.215A.215.215,0,0,0,0,.215V2.287A.215.215,0,0,0,.215,2.5H3.276a.406.406,0,0,1,.349.614,4.22,4.22,0,0,1-.647.824l0,0L4.72,5.688l.25-.247A6.8,6.8,0,0,0,6.723.88Z" transform="translate(6.743 5.801)" fill="#fff"/>
        <path id="Vector-8" data-name="Vector" d="M5.309,1.512A1.149,1.149,0,0,0,4.219,0H0V1.1a.215.215,0,0,0,.215.215H3.276a.406.406,0,0,1,.349.614,4.221,4.221,0,0,1-.644.822l0,.005.962.962A5.605,5.605,0,0,0,5.148,1.938q.088-.209.161-.425Z" transform="translate(6.743 6.984)" fill="#fff"/>
      </g>
    </g>
  </g>
</svg>
