<svg id="hide" xmlns="http://www.w3.org/2000/svg" width="14.973" height="12.929" viewBox="0 0 14.973 12.929">
  <path id="Vector" d="M0,.01,2.143,2.154l.01-.112A2.043,2.043,0,0,0,.112,0Z" transform="translate(7.373 4.083)" fill="#677294"/>
  <path id="Vector-2" data-name="Vector" d="M2.712,1.7a3.4,3.4,0,0,1,3.4,3.4,3.35,3.35,0,0,1-.242,1.242l1.99,1.99A8.081,8.081,0,0,0,10.2,5.1,8.052,8.052,0,0,0,2.712,0,7.958,7.958,0,0,0,0,.476L1.47,1.943A3.419,3.419,0,0,1,2.712,1.7Z" transform="translate(4.773 1.021)" fill="#677294"/>
  <path id="Vector-3" data-name="Vector" d="M.68.868,2.232,2.419l.31.31A8.059,8.059,0,0,0,0,6.124a8.048,8.048,0,0,0,7.485,5.1,7.978,7.978,0,0,0,2.984-.575l.289.289,1.984,1.987.868-.864L1.548,0Zm3.763,3.76L5.495,5.678a2.156,2.156,0,0,0-.051.446A2.043,2.043,0,0,0,7.485,8.165a2.1,2.1,0,0,0,.442-.051L8.979,9.166a3.347,3.347,0,0,1-1.494.361,3.38,3.38,0,0,1-3.042-4.9Z" fill="#677294"/>
</svg>
