<svg xmlns="http://www.w3.org/2000/svg" width="19.68" height="22.241" viewBox="0 0 19.68 22.241">
  <path id="home" d="M29.491,13.019l-7.623-6.59a1.978,1.978,0,0,0-2.582,0l-7.623,6.59a1.989,1.989,0,0,0-.664,1.5V25.634A1.973,1.973,0,0,0,12.967,27.6H28.212a1.973,1.973,0,0,0,1.967-1.967V14.519A1.928,1.928,0,0,0,29.491,13.019Zm-11.114,13.6V20.224a.986.986,0,0,1,.984-.984h2.459a.986.986,0,0,1,.984.984v6.393ZM29.2,25.634a.986.986,0,0,1-.984.984H23.786V20.224a1.973,1.973,0,0,0-1.967-1.967H19.36a1.973,1.973,0,0,0-1.967,1.967v6.393H12.967a.986.986,0,0,1-.984-.984V14.519a.922.922,0,0,1,.344-.738l7.623-6.59a1.036,1.036,0,0,1,.639-.246.91.91,0,0,1,.639.246l7.623,6.59a1,1,0,0,1,.344.738Z" transform="translate(-10.75 -5.61)" fill="#fff" stroke="#fff" stroke-width="0.5"/>
</svg>
