<svg id="Component_95_1" data-name="Component 95 – 1" xmlns="http://www.w3.org/2000/svg" width="13.586" height="13.586" viewBox="0 0 13.586 13.586">
  <path id="Path_28036" data-name="Path 28036" d="M-95.043,1588.45a1.187,1.187,0,0,0-.282.111c-.069.041-.1.03-.135-.044a3.6,3.6,0,0,0-.591-.844,1.333,1.333,0,0,0-.728-.429,7.314,7.314,0,0,0-2.307-.055,1.7,1.7,0,0,0-1.226.743,4.059,4.059,0,0,0-.361.569c-.039.08-.068.1-.153.055a1.215,1.215,0,0,0-.425-.141.4.4,0,0,0-.494.437.992.992,0,0,0,.4.748.116.116,0,0,1,.047.158,3.8,3.8,0,0,0-.013,2.232,2.674,2.674,0,0,1,.135.807.542.542,0,0,0,.54.542q.3.009.61,0a.553.553,0,0,0,.526-.426c.029-.1,0-.211.025-.321.036.005.071.006.1.014a5.285,5.285,0,0,0,2.545.018c.172-.041.173-.037.176.136a.557.557,0,0,0,.586.58c.177,0,.354,0,.53,0a.541.541,0,0,0,.574-.548,3.01,3.01,0,0,1,.15-.846,3.772,3.772,0,0,0,.028-1.978c-.049-.19-.1-.343.11-.485a1.044,1.044,0,0,0,.284-.493v-.292A.481.481,0,0,0-95.043,1588.45Zm-5.2.46a3.4,3.4,0,0,1,.607-.894,1.025,1.025,0,0,1,.672-.266,6.055,6.055,0,0,1,2.069.048.66.66,0,0,1,.347.178,3.062,3.062,0,0,1,.7,1.048c.037.092.02.116-.079.128-.675.085-1.348.184-2.027.222l-.123.006c-.69-.033-1.364-.126-2.038-.22C-100.342,1589.131-100.343,1589.125-100.246,1588.91Zm.2,3.821c-.012.051-.044.047-.079.047h-.212a.918.918,0,0,0-.132,0c-.121.019-.157-.027-.154-.149,0-.105.02-.154.136-.139a2.222,2.222,0,0,0,.265,0C-100.051,1592.492-100.006,1592.556-100.048,1592.731Zm4.526-.083c0,.1-.021.145-.13.132a2.2,2.2,0,0,0-.251,0c-.194,0-.224-.042-.189-.239.008-.043.026-.047.06-.047h.224a.787.787,0,0,0,.132,0C-95.542,1592.467-95.516,1592.526-95.522,1592.647Zm.156-.8a.1.1,0,0,1-.113.08c-.15,0-.3,0-.514,0a2.786,2.786,0,0,0-1.055.165,4.93,4.93,0,0,1-2.513-.118,1.139,1.139,0,0,0-.339-.048c-.247,0-.495,0-.742,0a.123.123,0,0,1-.145-.11,4.123,4.123,0,0,1-.1-1.237c0-.048.013-.072.07-.068a1.88,1.88,0,0,1,.629.141.234.234,0,0,1,.152.2.272.272,0,0,0,.287.223.281.281,0,0,0,.265-.266.618.618,0,0,0-.258-.539,1.68,1.68,0,0,0-.85-.3c-.185-.023-.18-.019-.114-.2.03-.083.062-.112.16-.1.713.1,1.426.2,2.144.257a6.15,6.15,0,0,0,1.19-.049c.527-.058,1.052-.128,1.577-.2a.172.172,0,0,1,.226.136c.04.111.031.146-.095.156a1.745,1.745,0,0,0-.8.242.646.646,0,0,0-.341.563.281.281,0,0,0,.254.3.274.274,0,0,0,.3-.238.207.207,0,0,1,.124-.172,1.816,1.816,0,0,1,.654-.151c.06,0,.066.031.068.073A3.866,3.866,0,0,1-95.366,1591.849Z" transform="translate(107.978 -1579.758)" fill="#c5cee0"/>
  <path id="Path_28037" data-name="Path 28037" d="M-263.936,1380.564a.025.025,0,0,1-.013,0h0s0,0,0,0a1.094,1.094,0,0,0-.328-.743,1.234,1.234,0,0,0-.9-.448H-276.3c-.005.006-.009.018-.016.019a1.408,1.408,0,0,0-1.2,1.49V1386c0,.729-.007,1.459,0,2.188a1.393,1.393,0,0,0,1.353,1.365c1.41.012,2.821,0,4.231,0a.283.283,0,0,0,.3-.287.286.286,0,0,0-.3-.274c-.04,0-.08,0-.12,0h-3.966a.864.864,0,0,1-.939-.94q0-3.137,0-6.274c0-.123.033-.151.153-.151q6.081,0,12.163,0c.115,0,.147.024.146.144q-.006,2.646,0,5.292c0,.049,0,.1,0,.146a.257.257,0,0,0,.193.243.274.274,0,0,0,.309-.1c.022-.026.021-.068.059-.082V1380.7h0Zm-.8.5H-276.72c-.239,0-.24,0-.235-.245a.847.847,0,0,1,.535-.824.888.888,0,0,1,.362-.065h10.66a.856.856,0,0,1,.9.9C-264.5,1381.068-264.5,1381.068-264.734,1381.068Z" transform="translate(277.522 -1379.37)" fill="#c5cee0"/>
  <path id="Path_28038" data-name="Path 28038" d="M-241.1,1461.7a.283.283,0,0,0-.233.283,1.246,1.246,0,0,1-.387.777.314.314,0,0,0-.094.325c.033.133.072.264.1.4a.31.31,0,0,0,.255.254c.154.037.31.071.462.114a2.364,2.364,0,0,1,.945.354.255.255,0,0,0,.362-.078.279.279,0,0,0-.046-.382,1.382,1.382,0,0,0-.542-.295c-.276-.075-.555-.142-.832-.212a.126.126,0,0,1-.072-.223,1.874,1.874,0,0,0,.375-.751.122.122,0,0,1,.051-.088.565.565,0,0,0,.26-.453c.016-.149.04-.3.053-.447a.511.511,0,0,0-.141-.4.334.334,0,0,1-.005-.455.653.653,0,0,0,.15-.641,1.009,1.009,0,0,0-.662-.705,1.813,1.813,0,0,0-1.332.059,1.538,1.538,0,0,1-.452.122,1.817,1.817,0,0,0-.311.06.929.929,0,0,0-.7.732,2.132,2.132,0,0,0-.006.646.149.149,0,0,1-.057.147.492.492,0,0,0-.177.437c.016.171.044.342.065.512a.5.5,0,0,0,.241.377c.037.024.072.04.084.092a1.875,1.875,0,0,0,.363.742.146.146,0,0,1-.092.236q-.365.094-.731.184a1.537,1.537,0,0,0-1.19,1.429c-.008.253.089.355.344.355h2.692c.411,0,.822,0,1.233,0a.275.275,0,0,0,.284-.284.282.282,0,0,0-.282-.276c-.04,0-.08,0-.119,0-1.145,0-2.29,0-3.435,0-.109,0-.116-.029-.074-.116a.972.972,0,0,1,.657-.551q.48-.123.963-.24a.323.323,0,0,0,.271-.27c.026-.134.061-.267.1-.4a.306.306,0,0,0-.086-.326,1.259,1.259,0,0,1-.372-.771c-.011-.1-.051-.2-.158-.222-.14-.023-.154-.111-.162-.219a1.011,1.011,0,0,0-.03-.183c-.014-.053,0-.072.052-.092a.288.288,0,0,0,.211-.359,3.681,3.681,0,0,1-.047-.647.377.377,0,0,1,.3-.389,1.76,1.76,0,0,1,.483-.07.367.367,0,0,0,.2-.051,1.259,1.259,0,0,1,.861-.189.556.556,0,0,1,.512.318.149.149,0,0,1-.035.2.511.511,0,0,0-.192.468c0,.088,0,.177-.01.265-.01.178-.066.379.206.42a1,1,0,0,1-.005.388C-241.044,1461.654-241.041,1461.688-241.1,1461.7Z" transform="translate(246.541 -1456.151)" fill="#c5cee0"/>
  <path id="Path_28039" data-name="Path 28039" d="M-53.021,1538.892c-.19,0-.38,0-.57,0a.277.277,0,0,0-.284.286.281.281,0,0,0,.277.281c.026,0,.053,0,.08,0h3.807a.6.6,0,0,0,.17-.021.267.267,0,0,0,.187-.273.266.266,0,0,0-.193-.257.524.524,0,0,0-.184-.019h-3.289Z" transform="translate(61.805 -1533.234)" fill="#c5cee0"/>
  <path id="Path_28040" data-name="Path 28040" d="M-52.035,1491.028c-.552,0-1.1,0-1.657,0a.283.283,0,0,0-.284.179.285.285,0,0,0,.292.39c.274,0,.548,0,.822,0s.548,0,.822,0a.284.284,0,0,0,.3-.282A.281.281,0,0,0-52.035,1491.028Z" transform="translate(61.924 -1487.066)" fill="#c5cee0"/>
  <path id="Path_28041" data-name="Path 28041" d="M27.2,1491.595a.286.286,0,1,0,0-.569c-.176,0-.353,0-.529,0s-.344,0-.516,0c-.2,0-.33.115-.332.283a.293.293,0,0,0,.328.286Q26.676,1491.6,27.2,1491.595Z" transform="translate(-15.07 -1487.066)" fill="#c5cee0"/>
  <path id="Path_28042" data-name="Path 28042" d="M-20.7,1682.574q-.516,0-1.032,0a.3.3,0,0,0-.332.282.294.294,0,0,0,.328.287c.172,0,.344,0,.516,0s.344,0,.516,0c.211,0,.337-.112.335-.289S-20.493,1682.575-20.7,1682.574Z" transform="translate(31.118 -1671.822)" fill="#c5cee0"/>
</svg>
