<svg id="noun-location-1570211" xmlns="http://www.w3.org/2000/svg" width="12.372" height="19.001"
  viewBox="0 0 12.372 19.001">
  <path id="Path_28043" data-name="Path 28043"
    d="M199.386,39.168a6.081,6.081,0,0,0-6.186,6.186,9.455,9.455,0,0,0,1.1,4.066l4.494,8.395a.663.663,0,0,0,1.174,0l4.494-8.395a9.456,9.456,0,0,0,1.1-4.066,6.081,6.081,0,0,0-6.186-6.186Zm0,1.326a4.667,4.667,0,0,1,4.86,4.86,8.982,8.982,0,0,1-.946,3.438l-3.914,7.3-3.914-7.3a8.986,8.986,0,0,1-.946-3.438A4.667,4.667,0,0,1,199.386,40.494Zm0,1.767a3.093,3.093,0,1,0,3.093,3.093A3.1,3.1,0,0,0,199.386,42.261Zm0,1.326a1.767,1.767,0,1,1-1.767,1.767A1.757,1.757,0,0,1,199.386,43.586Z"
    transform="translate(-193.2 -39.168)" fill="currentColor" />
</svg>