<svg xmlns="http://www.w3.org/2000/svg" xmlns:xlink="http://www.w3.org/1999/xlink" width="20" height="23" viewBox="0 0 20 23">
  <defs>
    <clipPath id="clip-path">
      <rect id="Rectangle_18143" data-name="Rectangle 18143" width="20" height="23" transform="translate(3138 5231)" fill="#323232"/>
    </clipPath>
  </defs>
  <g id="lost_found" data-name="lost found" transform="translate(-3138 -5231)" clip-path="url(#clip-path)">
    <g id="lost-items" transform="translate(3127.334 5232.065)">
      <g id="Group_59283" data-name="Group 59283" transform="translate(10.666)">
        <g id="Group_59282" data-name="Group 59282">
          <path id="Path_27798" data-name="Path 27798" d="M68.194,113.109h-.009a.431.431,0,0,0-.43.435.437.437,0,1,0,.439-.435Z" transform="translate(-65.428 -108.499)" fill="#fff"/>
          <path id="Path_27799" data-name="Path 27799" d="M30.231,9.186h-.7l1.115-4a.466.466,0,0,0-.252-.555.426.426,0,0,0-.548.209,2.145,2.145,0,0,1-1.79.676c-1,0-1.739-.485-1.739-.919V1.837a1.742,1.742,0,1,0-3.478,0V2.3a.435.435,0,1,0,.87,0V1.837a.871.871,0,1,1,1.739,0V4.593c0,.434-.743.919-1.739.919a2.149,2.149,0,0,1-1.791-.676.428.428,0,0,0-.548-.209.466.466,0,0,0-.252.555l1.115,4H20.779L18,2.649a1.33,1.33,0,0,0-.727-.723,1.233,1.233,0,0,0-1,.032L12.305,3.842a1.413,1.413,0,0,0-.654,1.822l1.5,3.522H11.1a.448.448,0,0,0-.435.459v8.267a4.033,4.033,0,0,0,3.913,4.134H26.753a4.033,4.033,0,0,0,3.913-4.134V9.645A.448.448,0,0,0,30.231,9.186ZM26.318,5.969a3.3,3.3,0,0,0,1.739.461,4.121,4.121,0,0,0,1.406-.245l-.836,3h-2.31V5.969Zm-2.609.461a3.3,3.3,0,0,0,1.739-.461V9.186H23.14l-.836-3A4.111,4.111,0,0,0,23.709,6.43ZM12.444,5.288a.47.47,0,0,1,.217-.607L16.628,2.8a.41.41,0,0,1,.332-.011.443.443,0,0,1,.242.241l2.623,6.159H14.1ZM29.8,17.913a3.136,3.136,0,0,1-3.043,3.215H14.579a3.136,3.136,0,0,1-3.043-3.215V10.1H29.8Z" transform="translate(-10.666 0)" fill="#fff"/>
          <g id="Group_59281" data-name="Group 59281">
            <path id="Path_27800" data-name="Path 27800" d="M203.164,280.3a.53.53,0,0,0,.574-.5,1.627,1.627,0,0,1,3.23.092c0,.963-.822,1.283-1.628,1.468l-.119.029a.536.536,0,0,0-.4.52v1.345a.538.538,0,0,0,1.076,0v-.927c1.428-.409,2.152-1.228,2.152-2.438a2.7,2.7,0,0,0-5.382-.164A.539.539,0,0,0,203.164,280.3Z" transform="translate(-195.354 -266.03)" fill="#fff"/>
            <path id="Path_27801" data-name="Path 27801" d="M245.494,426.98a.538.538,0,1,0,.754,0A.539.539,0,0,0,245.494,426.98Z" transform="translate(-235.872 -407.979)" fill="#fff"/>
          </g>
        </g>
      </g>
    </g>
  </g>
</svg>
