<svg id="Component_97_2" data-name="Component 97 – 2" xmlns="http://www.w3.org/2000/svg" width="16.928" height="13.693" viewBox="0 0 16.928 13.693">
  <path id="Path_28031" data-name="Path 28031" d="M168.4,872.046c-.316-.579-.64-1.154-.983-1.718a4.278,4.278,0,0,0-4.843-1.88,13.782,13.782,0,0,0-1.953.857q-2,.925-3.989,1.866a5.679,5.679,0,0,0-1.279.834c-.109.093-.18.2-.068.325s.228.076.335-.018c.028-.025.056-.05.086-.074a5.4,5.4,0,0,1,8.735,3.293c.041.215.131.294.345.278a5.423,5.423,0,0,1,.586,0,.193.193,0,0,1,.015.384,1.122,1.122,0,0,1-.18.006c-.442,0-.886-.007-1.329,0-.408.008-.456-.033-.527-.431a4.276,4.276,0,0,0-7.47-2.136,3.955,3.955,0,0,0-.977,2.209c-.024.2-.083.356-.32.356q-.821,0-1.643,0c-.136,0-.245-.055-.236-.209.008-.135.1-.186.236-.184.187,0,.376-.008.564,0s.286-.084.315-.268a5.319,5.319,0,0,1,1.175-2.59c.093-.114.171-.236.035-.352s-.254-.022-.354.1a5.947,5.947,0,0,0-1.151,2.244c-.04.15-.007.362-.131.435s-.307.019-.464.023a.6.6,0,1,0-.037,1.2c.187.012.376,0,.564,0,.077,0,.15,0,.181.091a2.655,2.655,0,0,0,.32.567c-.476,0-.924,0-1.372,0a.94.94,0,0,0-.556.148.817.817,0,0,0-.32.895.787.787,0,0,0,.749.577c.624.008,1.248,0,1.924,0a.251.251,0,0,0,.034.43,1.2,1.2,0,0,0,.365.259,3.4,3.4,0,0,1,1.248.84,1.583,1.583,0,0,0,.274.2c.146.077.145.141.037.262-.175.2-.123.336.131.4a1.873,1.873,0,0,0,.936,0,.523.523,0,0,1,.306,0,3.875,3.875,0,0,0,1.061.19c.169,0,.216.054.172.227-.057.229.074.332.307.271a1,1,0,0,0,.449-.2,3.584,3.584,0,0,1,1.35-.664,1.551,1.551,0,0,0,.286-.13c.146-.09.221-.08.277.1.074.236.227.26.4.084a1.015,1.015,0,0,0,.289-.4,3.481,3.481,0,0,1,.853-1.267,1.39,1.39,0,0,0,.183-.256c.075-.142.139-.152.262-.039.19.174.359.122.4-.129.029-.168.109-.18.244-.178.481.005.962,0,1.443,0a1.029,1.029,0,0,0,.334-.036.811.811,0,0,0-.253-1.583c-.391-.013-.782,0-1.173,0-.442,0-.442,0-.406-.427a.318.318,0,0,0,0-.068c-.021-.148.057-.169.184-.166.33.007.662.011.992,0a.6.6,0,0,0,.583-.474.608.608,0,0,0-.338-.672c-.03-.016-.078-.011-.078-.076.039-.022.084-.046.129-.07.7-.365,1.4-.72,2.091-1.1A1.558,1.558,0,0,0,168.4,872.046Zm-13.551,4.506a.568.568,0,0,0,.427-.5,5.055,5.055,0,0,1,.267-1.089,3.865,3.865,0,0,1,7.4.827.977.977,0,0,0,.213.6.723.723,0,0,0,.483.211c.045,0,.124,0,.13.012a1.446,1.446,0,0,1-.031.554c-.008.127-.116.092-.192.092-.443,0-.887,0-1.33,0H160.1a1.326,1.326,0,0,0-.138-1.828,1.271,1.271,0,0,0-1.635-.016,1.316,1.316,0,0,0-.175,1.822.387.387,0,0,1-.215.02c-1.014,0-2.029-.014-3.043.01a.719.719,0,0,1-.654-.333.648.648,0,0,1-.146-.251A3.361,3.361,0,0,0,154.848,876.552ZM160,876.39a.868.868,0,0,1-1.736.016A.868.868,0,0,1,160,876.39Zm2.39,3.346a.824.824,0,0,0-.3.483.973.973,0,0,1-.171.386c-.086.006-.062-.072-.086-.11-.076-.12-.171-.169-.3-.092a4.9,4.9,0,0,1-1.479.578.39.39,0,0,0-.2.14,1.3,1.3,0,0,1-.429.321c-.016-.36-.017-.357-.378-.368a4.324,4.324,0,0,1-1.219-.193.767.767,0,0,0-.523-.007.889.889,0,0,1-.442.035c.168-.294.159-.327-.126-.5a4.249,4.249,0,0,1-.978-.789.751.751,0,0,0-.432-.256.927.927,0,0,1-.429-.2c.1-.063.225-.086.265-.224.033-.112.143-.055.215-.055q3.325-.005,6.649,0h1.049A3.823,3.823,0,0,1,162.391,879.737Zm3.188-2.068a1.528,1.528,0,0,1,.247.011.4.4,0,0,1-.048.8c-.068,0-.136,0-.2,0H152.685a2.25,2.25,0,0,1-.247-.007.388.388,0,0,1-.352-.377.377.377,0,0,1,.294-.4,1.163,1.163,0,0,1,.29-.026q2.264,0,4.529,0Zm2-3.822c-.87.47-1.754.917-2.628,1.379-.119.063-.14.032-.172-.087a5.714,5.714,0,0,0-4.668-4.448c-.211-.044-.43-.052-.645-.077h-.635a1.387,1.387,0,0,1,.135-.083c1.084-.511,2.158-1.045,3.255-1.528a3.88,3.88,0,0,1,4.82,1.5c.357.572.684,1.163,1.007,1.756A1.144,1.144,0,0,1,167.583,873.846Z" transform="translate(-151.678 -868.279)" fill="#c5cee0"/>
</svg>
