<svg xmlns="http://www.w3.org/2000/svg" width="32" height="32" viewBox="0 0 32 32">
  <g id="Group_59611" data-name="Group 59611" transform="translate(-56 -552)">
    <circle id="Ellipse_35" data-name="Ellipse 35" cx="16" cy="16" r="16" transform="translate(56 552)" fill="#72d7ff"/>
    <path id="order" d="M7.805.541V6.582h3.03V.541a1.515,1.515,0,0,0-3.03,0ZM.354,3.177a.522.522,0,0,1,.739-.739l.286.286L2.3,1.8a1.616,1.616,0,1,0,.582.895L1.749,3.833a.523.523,0,0,1-.739,0ZM3.047,1.058,3.7.4a.522.522,0,0,1,.739.739L3.7,1.887a2.663,2.663,0,1,1-.649-.828ZM-1.945,11.98a.522.522,0,0,0-.522.522.522.522,0,0,0,.522.522.522.522,0,0,0,.522-.522A.522.522,0,0,0-1.945,11.98ZM.144,13.025a.522.522,0,0,1,0-1.045H5.194a.522.522,0,0,1,0,1.045ZM-1.945,9.891a.522.522,0,0,0-.522.522.522.522,0,0,0,.522.522.522.522,0,0,0,.522-.522A.522.522,0,0,0-1.945,9.891ZM.144,10.935a.522.522,0,1,1,0-1.045H5.194a.522.522,0,1,1,0,1.045ZM7.805,7.627v7.661a.522.522,0,0,1-.522.522H-4.035a.522.522,0,0,1-.522-.522V.488A2.511,2.511,0,0,1-2.05-2.019H9.32A2.566,2.566,0,0,1,11.88.541V7.1a.522.522,0,0,1-.522.522ZM7.26-.974A2.545,2.545,0,0,0,6.761.54V14.766H-3.512V.488A1.466,1.466,0,0,1-2.05-.974ZM-1.945,7.8a.522.522,0,0,0-.522.522.522.522,0,0,0,.522.522.522.522,0,0,0,.522-.522A.522.522,0,0,0-1.945,7.8ZM.144,8.846H5.194a.522.522,0,0,0,0-1.045H.144a.522.522,0,0,0,0,1.045Zm0,0" transform="translate(68.557 561.019)" fill="#fff" fill-rule="evenodd"/>
  </g>
</svg>
