<svg xmlns="http://www.w3.org/2000/svg" width="11.348" height="11.353" viewBox="0 0 11.348 11.353">
  <path id="phone" d="M9.93,11.353H8.795A8.737,8.737,0,0,1,2.576,8.777,8.737,8.737,0,0,1,0,2.558V1.419A1.42,1.42,0,0,1,1.419,0H3.294a1.414,1.414,0,0,1,1.4,1.185l.261,1.572a1.327,1.327,0,0,1-.894,1.484l-.342.114a.284.284,0,0,0-.184.344L3.891,6A2.228,2.228,0,0,0,5.338,7.533l.866.289A.284.284,0,0,0,6.53,7.71l.414-.62a1.418,1.418,0,0,1,1.629-.559l1.806.6a1.416,1.416,0,0,1,.97,1.347V9.934a1.41,1.41,0,0,1-.415,1A1.431,1.431,0,0,1,9.93,11.353ZM1.419.567a.852.852,0,0,0-.851.851V2.557a8.237,8.237,0,0,0,8.228,8.228H9.93a.852.852,0,0,0,.851-.851V8.478A.849.849,0,0,0,10.2,7.67l-1.806-.6a.851.851,0,0,0-.977.335L7,8.024a.85.85,0,0,1-.977.335l-.866-.289A2.792,2.792,0,0,1,3.344,6.153L2.989,4.848A.853.853,0,0,1,3.54,3.817L3.882,3.7A.762.762,0,0,0,4.4,2.85L4.133,1.278a.848.848,0,0,0-.84-.711Z" fill="#c5cee0"/>
</svg>
