<svg id="profile" xmlns="http://www.w3.org/2000/svg" width="23.785" height="23.785" viewBox="0 0 23.785 23.785">
  <g id="Group_1459" data-name="Group 1459">
    <path id="Path_3698" data-name="Path 3698" d="M167.753,119A3.753,3.753,0,1,1,164,122.753,3.774,3.774,0,0,1,167.753,119Zm0,1.234a2.519,2.519,0,1,0,2.519,2.519A2.523,2.523,0,0,0,167.753,120.234Z" transform="translate(-155.861 -113.094)" fill="#fff"/>
    <path id="Path_3699" data-name="Path 3699" d="M11.892,0A11.892,11.892,0,1,1,0,11.892,11.885,11.885,0,0,1,11.892,0Zm0,13.7a7.286,7.286,0,0,1,7.176,6.072A10.675,10.675,0,1,0,1.2,11.892a10.758,10.758,0,0,0,3.462,7.878A7.379,7.379,0,0,1,11.892,13.7Zm6.072,6.975A6.069,6.069,0,0,0,11.892,14.9a6.15,6.15,0,0,0-6.122,5.771,10.791,10.791,0,0,0,6.122,1.907A10.514,10.514,0,0,0,17.964,20.674Z" fill="#fff"/>
  </g>
</svg>
