<svg xmlns="http://www.w3.org/2000/svg" width="13.405" height="13.405" viewBox="0 0 13.405 13.405">
  <g id="Group_104" data-name="Group 104" transform="translate(0 0)">
    <path id="Path_279" data-name="Path 279" d="M6.613,0A6.7,6.7,0,1,0,13.4,6.612,6.7,6.7,0,0,0,6.613,0Zm-.02,10.781H6.556A.975.975,0,0,1,6.578,8.83h.034a.975.975,0,1,1-.019,1.951Zm2.4-4.758a4.42,4.42,0,0,1-.8.716l-.409.282a1.115,1.115,0,0,0-.411.5,1.038,1.038,0,0,0-.063.419v.066H5.745l0-.132a1.708,1.708,0,0,1,.258-1.127,6.642,6.642,0,0,1,1.165-.938,1.227,1.227,0,0,0,.275-.282.992.992,0,0,0,.237-.578,1.131,1.131,0,0,0-.215-.667.892.892,0,0,0-.773-.29.841.841,0,0,0-.78.361,1.448,1.448,0,0,0-.237.779V5.2H4.07l0-.07A2.449,2.449,0,0,1,5.119,3.02a2.755,2.755,0,0,1,1.515-.4,3.267,3.267,0,0,1,1.953.563,1.951,1.951,0,0,1,.791,1.684A1.928,1.928,0,0,1,8.99,6.024Zm0,0" transform="translate(0 0)" fill="#39de99"/>
  </g>
</svg>
