<svg xmlns="http://www.w3.org/2000/svg" width="19" height="20" viewBox="0 0 19 20">
  <path id="Path_27856" data-name="Path 27856" d="M74.267,634.234l1.258-.741a.978.978,0,0,0,.442-1.091,10.034,10.034,0,0,0-2.532-4.468.933.933,0,0,0-1.146-.153l-1.256.74a7.71,7.71,0,0,0-1.3-.767v-1.482a.979.979,0,0,0-.2-.59.946.946,0,0,0-.508-.346,9.679,9.679,0,0,0-5.056,0,.966.966,0,0,0-.705.936v1.482a7.71,7.71,0,0,0-1.3.767l-1.256-.741a.935.935,0,0,0-1.146.154,10.034,10.034,0,0,0-2.532,4.468.978.978,0,0,0,.442,1.091l1.258.741a8.134,8.134,0,0,0,0,1.532l-1.258.741a.978.978,0,0,0-.442,1.091,10.034,10.034,0,0,0,2.532,4.468.935.935,0,0,0,1.146.154l1.256-.741a7.71,7.71,0,0,0,1.3.767v1.482a.979.979,0,0,0,.2.59.946.946,0,0,0,.509.346,9.679,9.679,0,0,0,5.056,0,.966.966,0,0,0,.705-.936v-1.482a7.71,7.71,0,0,0,1.3-.767l1.256.741a.935.935,0,0,0,1.146-.154,10.034,10.034,0,0,0,2.532-4.468.978.978,0,0,0-.442-1.091l-1.258-.741A8.133,8.133,0,0,0,74.267,634.234Zm-2.082,2.541,1.732,1.02a8.124,8.124,0,0,1-1.338,2.36l-1.732-1.021a6.705,6.705,0,0,1-3.01,1.776v2.04a7.788,7.788,0,0,1-2.673,0v-2.04a6.7,6.7,0,0,1-3.01-1.776l-1.732,1.021a8.124,8.124,0,0,1-1.338-2.36l1.732-1.02a7.078,7.078,0,0,1,0-3.55l-1.732-1.02a8.114,8.114,0,0,1,1.338-2.36l1.732,1.021a6.705,6.705,0,0,1,3.01-1.776v-2.04a7.788,7.788,0,0,1,2.673,0v2.041a6.7,6.7,0,0,1,3.01,1.775l1.732-1.021a8.124,8.124,0,0,1,1.338,2.36l-1.732,1.02A7.076,7.076,0,0,1,72.185,636.775ZM66.5,631.129A3.872,3.872,0,1,0,70.294,635,3.838,3.838,0,0,0,66.5,631.129Zm0,5.807A1.936,1.936,0,1,1,68.4,635,1.919,1.919,0,0,1,66.5,636.936Z" transform="translate(-57 -625)" fill="#5ab9ea"/>
</svg>
