<svg xmlns="http://www.w3.org/2000/svg" width="14.973" height="10.539" viewBox="0 0 14.973 10.539">
  <g id="show" transform="translate(0 -74.667)">
    <g id="Group_59680" data-name="Group 59680" transform="translate(0 74.667)">
      <g id="Group_59679" data-name="Group 59679" transform="translate(0 0)">
        <path id="Path_28075" data-name="Path 28075" d="M172.709,170.667a2.042,2.042,0,1,0,2.042,2.042A2.043,2.043,0,0,0,172.709,170.667Z" transform="translate(-165.222 -167.44)" fill="#677294"/>
        <path id="Path_28076" data-name="Path 28076" d="M7.487,74.667A8.059,8.059,0,0,0,0,79.936a8.059,8.059,0,0,0,7.487,5.269,8.056,8.056,0,0,0,7.487-5.269A8.056,8.056,0,0,0,7.487,74.667Zm0,8.782a3.515,3.515,0,0,1,0-7.026,3.515,3.515,0,0,1,0,7.026Z" transform="translate(0 -74.667)" fill="#677294"/>
      </g>
    </g>
  </g>
</svg>
