<svg xmlns="http://www.w3.org/2000/svg" width="11.371" height="11.37" viewBox="0 0 11.371 11.37">
  <path id="user" d="M9.594,11.37H1.777A1.779,1.779,0,0,1,0,9.594V9.088A1.781,1.781,0,0,1,1.041,7.47L3.5,6.354a3.553,3.553,0,1,1,4.375,0L10.33,7.47a1.781,1.781,0,0,1,1.041,1.618v.506A1.779,1.779,0,0,1,9.594,11.37ZM4.236,6.8l-2.9,1.318a1.069,1.069,0,0,0-.626.971v.506A1.067,1.067,0,0,0,1.777,10.66H9.594A1.067,1.067,0,0,0,10.66,9.594V9.088a1.07,1.07,0,0,0-.626-.971L7.134,6.8a3.5,3.5,0,0,1-1.44.308H5.676A3.5,3.5,0,0,1,4.236,6.8ZM5.686.71A2.843,2.843,0,1,0,8.528,3.553,2.846,2.846,0,0,0,5.686.71Z" fill="#c5cee0"/>
</svg>
